<svg 
 xmlns="http://www.w3.org/2000/svg"
 xmlns:xlink="http://www.w3.org/1999/xlink"
 width="15px" height="15px">
<path fill-rule="evenodd"  fill="rgb(22, 22, 219)"
 d="M14.542,11.752 L11.735,11.752 C11.285,13.610 9.557,14.999 7.500,14.999 C5.442,14.999 3.715,13.610 3.265,11.752 L0.458,11.752 C0.205,11.752 -0.000,11.554 -0.000,11.310 L-0.000,1.319 C-0.000,1.075 0.205,0.877 0.458,0.877 L3.568,0.877 L3.568,0.441 C3.568,0.197 3.773,-0.001 4.026,-0.001 C4.279,-0.001 4.483,0.197 4.483,0.441 L4.483,0.877 L7.042,0.877 L7.042,0.441 C7.042,0.197 7.247,-0.001 7.500,-0.001 C7.752,-0.001 7.957,0.197 7.957,0.441 L7.957,0.877 L10.630,0.877 L10.630,0.441 C10.630,0.197 10.835,-0.001 11.087,-0.001 C11.340,-0.001 11.545,0.197 11.545,0.441 L11.545,0.877 L14.542,0.877 C14.795,0.877 15.000,1.075 15.000,1.319 L15.000,11.310 C15.000,11.554 14.795,11.752 14.542,11.752 ZM7.500,14.114 C9.394,14.114 10.935,12.625 10.935,10.794 C10.935,8.964 9.394,7.474 7.500,7.474 C5.606,7.474 4.065,8.964 4.065,10.794 C4.065,12.624 5.606,14.114 7.500,14.114 ZM0.915,10.868 L3.152,10.868 C3.151,10.843 3.150,10.819 3.150,10.794 C3.150,8.476 5.101,6.589 7.500,6.589 C9.898,6.589 11.850,8.476 11.850,10.794 C11.850,10.819 11.848,10.843 11.848,10.868 L14.085,10.868 L14.085,4.454 L0.915,4.454 L0.915,10.868 ZM14.085,1.761 L11.545,1.761 L11.545,2.161 C11.545,2.405 11.340,2.603 11.087,2.603 C10.835,2.603 10.630,2.405 10.630,2.161 L10.630,1.761 L7.957,1.761 L7.957,2.161 C7.957,2.405 7.752,2.603 7.500,2.603 C7.247,2.603 7.042,2.405 7.042,2.161 L7.042,1.761 L4.483,1.761 L4.483,2.161 C4.483,2.405 4.279,2.603 4.026,2.603 C3.773,2.603 3.568,2.405 3.568,2.161 L3.568,1.761 L0.915,1.761 L0.915,3.569 L14.085,3.569 L14.085,1.761 ZM7.500,8.325 C7.752,8.325 7.957,8.523 7.957,8.766 L7.957,10.905 L8.875,11.793 C9.053,11.965 9.053,12.245 8.875,12.417 C8.785,12.504 8.668,12.547 8.551,12.547 C8.434,12.547 8.317,12.504 8.228,12.417 L7.176,11.401 C7.091,11.318 7.042,11.206 7.042,11.089 L7.042,8.766 C7.042,8.523 7.247,8.325 7.500,8.325 Z"/>
</svg>