<svg 
 xmlns="http://www.w3.org/2000/svg"
 xmlns:xlink="http://www.w3.org/1999/xlink"
 width="24px" height="14px">
<path fill-rule="evenodd"  fill="rgb(22, 22, 219)"
 d="M23.552,7.649 C23.332,7.909 18.113,14.000 12.256,14.000 C6.398,14.000 1.179,7.909 0.959,7.649 C0.810,7.471 0.810,7.211 0.959,7.035 C1.179,6.775 6.398,0.684 12.256,0.684 C19.081,0.684 23.399,6.810 23.579,7.072 C23.702,7.249 23.689,7.485 23.552,7.649 ZM12.256,1.635 C7.553,1.635 3.094,6.114 1.962,7.342 C3.096,8.569 7.560,13.049 12.256,13.049 C16.991,13.049 21.481,8.504 22.574,7.316 C21.627,6.108 17.750,1.635 12.256,1.635 ZM12.256,11.146 C10.158,11.146 8.453,9.440 8.453,7.342 C8.453,5.244 10.158,3.537 12.256,3.537 C14.353,3.537 16.058,5.244 16.058,7.342 C16.058,9.440 14.353,11.146 12.256,11.146 ZM12.256,4.488 C10.683,4.488 9.403,5.769 9.403,7.342 C9.403,8.915 10.683,10.195 12.256,10.195 C13.828,10.195 15.108,8.915 15.108,7.342 C15.108,5.769 13.828,4.488 12.256,4.488 Z"/>
</svg>