<svg 
 xmlns="http://www.w3.org/2000/svg"
 xmlns:xlink="http://www.w3.org/1999/xlink"
 width="12px" height="15px">
<path fill-rule="evenodd"  fill="rgb(22, 22, 219)"
 d="M11.291,14.304 C10.826,14.765 10.211,14.999 9.463,14.999 L2.537,14.999 C1.789,14.999 1.174,14.765 0.709,14.304 C0.239,13.837 -0.000,13.203 -0.000,12.420 C-0.000,12.118 0.010,11.820 0.029,11.534 C0.048,11.241 0.087,10.922 0.145,10.586 C0.204,10.247 0.279,9.926 0.369,9.633 C0.462,9.329 0.588,9.031 0.744,8.744 C0.906,8.447 1.097,8.188 1.310,7.974 C1.534,7.751 1.808,7.572 2.124,7.441 C2.440,7.311 2.789,7.245 3.163,7.245 C3.310,7.245 3.452,7.308 3.726,7.494 C3.897,7.610 4.095,7.743 4.313,7.889 C4.501,8.013 4.756,8.131 5.071,8.237 C5.379,8.341 5.691,8.393 5.999,8.393 C6.308,8.393 6.620,8.341 6.928,8.237 C7.243,8.131 7.498,8.013 7.687,7.889 C7.907,7.741 8.105,7.609 8.273,7.494 C8.548,7.308 8.689,7.245 8.836,7.245 C9.210,7.245 9.560,7.311 9.875,7.441 C10.192,7.572 10.465,7.751 10.689,7.974 C10.902,8.187 11.093,8.447 11.255,8.744 C11.411,9.031 11.538,9.330 11.631,9.633 C11.721,9.926 11.796,10.247 11.854,10.586 C11.912,10.922 11.951,11.241 11.971,11.534 C11.990,11.819 12.000,12.118 12.000,12.419 C12.000,13.203 11.761,13.837 11.291,14.304 ZM11.130,11.595 C11.113,11.334 11.077,11.047 11.025,10.741 C10.973,10.440 10.907,10.158 10.828,9.901 C10.753,9.656 10.650,9.413 10.522,9.179 C10.401,8.954 10.261,8.764 10.106,8.609 C9.962,8.465 9.779,8.347 9.565,8.258 C9.366,8.177 9.143,8.131 8.901,8.125 C8.871,8.142 8.819,8.173 8.734,8.230 C8.560,8.348 8.366,8.479 8.140,8.629 C7.891,8.795 7.571,8.944 7.187,9.074 C6.796,9.205 6.396,9.272 6.000,9.272 C5.603,9.272 5.204,9.205 4.812,9.074 C4.429,8.945 4.108,8.795 3.859,8.630 C3.639,8.483 3.439,8.348 3.266,8.230 C3.180,8.173 3.128,8.142 3.098,8.125 C2.856,8.131 2.633,8.177 2.435,8.258 C2.220,8.347 2.038,8.465 1.893,8.609 C1.739,8.764 1.599,8.955 1.477,9.179 C1.350,9.413 1.247,9.655 1.171,9.901 C1.093,10.157 1.027,10.440 0.975,10.741 C0.922,11.046 0.887,11.333 0.869,11.595 C0.852,11.861 0.843,12.139 0.843,12.420 C0.843,12.960 0.989,13.369 1.290,13.667 C1.598,13.972 2.005,14.120 2.537,14.120 L9.463,14.120 C9.994,14.120 10.402,13.972 10.709,13.667 C11.011,13.369 11.157,12.960 11.157,12.420 C11.157,12.138 11.148,11.860 11.130,11.595 ZM5.909,7.225 C4.958,7.225 4.133,6.868 3.460,6.167 C2.786,5.464 2.445,4.605 2.445,3.612 C2.445,2.619 2.786,1.760 3.460,1.057 C4.133,0.355 4.957,-0.000 5.909,-0.000 C6.861,-0.000 7.685,0.355 8.359,1.057 C9.032,1.760 9.374,2.620 9.374,3.612 C9.374,4.605 9.032,5.464 8.359,6.167 C7.685,6.869 6.861,7.225 5.909,7.225 ZM7.763,1.679 C7.246,1.141 6.639,0.878 5.909,0.878 C5.179,0.878 4.573,1.141 4.056,1.679 C3.539,2.219 3.288,2.850 3.288,3.612 C3.288,4.373 3.539,5.006 4.056,5.545 C4.573,6.084 5.179,6.346 5.909,6.346 C6.639,6.346 7.246,6.084 7.763,5.545 C8.279,5.006 8.531,4.373 8.531,3.612 C8.531,2.850 8.279,2.219 7.763,1.679 Z"/>
</svg>