<svg 
 xmlns="http://www.w3.org/2000/svg"
 xmlns:xlink="http://www.w3.org/1999/xlink"
 width="58px" height="45px">
<path fill-rule="evenodd"  fill="rgb(255, 255, 255)"
 d="M56.479,43.497 C55.465,44.498 54.245,44.999 52.822,44.999 L5.179,44.999 C3.754,44.999 2.535,44.498 1.521,43.497 C0.507,42.495 -0.000,41.292 -0.000,39.885 L-0.000,14.509 C0.949,15.553 2.039,16.480 3.269,17.290 C11.080,22.530 16.442,26.207 19.355,28.316 C20.585,29.210 21.583,29.909 22.349,30.409 C23.115,30.910 24.134,31.422 25.407,31.943 C26.680,32.466 27.867,32.726 28.967,32.726 L29.000,32.726 L29.033,32.726 C30.134,32.726 31.320,32.466 32.593,31.943 C33.866,31.422 34.885,30.910 35.651,30.409 C36.417,29.909 37.415,29.210 38.645,28.316 C42.313,25.695 47.686,22.019 54.763,17.290 C55.993,16.459 57.072,15.531 58.000,14.509 L58.000,39.885 C58.000,41.292 57.493,42.495 56.479,43.497 ZM52.465,13.869 C44.353,19.431 39.303,22.893 37.318,24.257 C37.102,24.406 36.644,24.730 35.943,25.232 C35.241,25.732 34.659,26.138 34.195,26.446 C33.731,26.755 33.170,27.101 32.512,27.485 C31.854,27.868 31.233,28.157 30.651,28.347 C30.068,28.539 29.529,28.635 29.032,28.635 L29.000,28.635 L28.967,28.635 C28.471,28.635 27.932,28.539 27.349,28.347 C26.766,28.157 26.146,27.868 25.488,27.485 C24.829,27.101 24.269,26.755 23.804,26.446 C23.341,26.138 22.758,25.732 22.057,25.232 C21.356,24.731 20.897,24.406 20.682,24.257 C18.718,22.893 15.891,20.949 12.202,18.425 C8.512,15.900 6.300,14.382 5.567,13.870 C4.229,12.975 2.967,11.745 1.780,10.179 C0.594,8.613 -0.000,7.158 -0.000,5.816 C-0.000,4.154 0.448,2.769 1.343,1.661 C2.238,0.554 3.517,-0.001 5.178,-0.001 L52.821,-0.001 C54.223,-0.001 55.437,0.500 56.462,1.501 C57.487,2.503 58.000,3.707 58.000,5.113 C58.000,6.796 57.471,8.405 56.413,9.938 C55.356,11.473 54.040,12.783 52.465,13.869 Z"/>
</svg>