<svg 
 xmlns="http://www.w3.org/2000/svg"
 xmlns:xlink="http://www.w3.org/1999/xlink"
 width="46px" height="46px">
<path fill-rule="evenodd"  fill="rgb(255, 255, 255)"
 d="M42.468,22.188 C41.673,17.546 39.481,13.324 36.141,9.984 C32.618,6.470 28.158,4.239 23.238,3.550 L23.735,-0.001 C29.431,0.794 34.590,3.368 38.668,7.446 C42.535,11.323 45.072,16.205 46.000,21.585 L42.468,22.188 ZM32.264,13.678 C34.590,16.013 36.122,18.952 36.677,22.197 L33.145,22.800 C32.714,20.293 31.537,18.014 29.737,16.215 C27.832,14.310 25.420,13.113 22.769,12.740 L23.266,9.189 C26.693,9.667 29.804,11.218 32.264,13.678 ZM15.015,25.088 C17.466,28.094 20.232,30.765 23.534,32.842 C24.243,33.283 25.028,33.608 25.765,34.010 C26.138,34.220 26.396,34.154 26.703,33.838 C27.823,32.689 28.962,31.560 30.101,30.430 C31.594,28.946 33.470,28.946 34.973,30.430 C36.801,32.249 38.630,34.068 40.448,35.896 C41.970,37.428 41.961,39.303 40.429,40.855 C39.395,41.898 38.295,42.893 37.318,43.985 C35.892,45.584 34.112,46.100 32.063,45.985 C29.086,45.823 26.349,44.837 23.707,43.554 C17.839,40.701 12.823,36.748 8.621,31.751 C5.510,28.056 2.945,24.026 1.260,19.488 C0.437,17.297 -0.147,15.047 0.035,12.663 C0.150,11.199 0.696,9.945 1.777,8.921 C2.945,7.810 4.046,6.652 5.194,5.523 C6.688,4.048 8.564,4.048 10.067,5.512 C10.995,6.422 11.904,7.350 12.823,8.269 C13.714,9.170 14.604,10.050 15.494,10.950 C17.064,12.529 17.064,14.367 15.504,15.937 C14.384,17.067 13.273,18.196 12.134,19.297 C11.837,19.594 11.809,19.834 11.962,20.197 C12.718,21.996 13.800,23.595 15.015,25.088 Z"/>
</svg>