<svg 
 xmlns="http://www.w3.org/2000/svg"
 xmlns:xlink="http://www.w3.org/1999/xlink"
 width="21px" height="20px">
<path fill-rule="evenodd"  fill="rgb(255, 255, 255)"
 d="M20.894,0.051 C20.800,-0.033 20.667,-0.053 20.554,0.001 L0.181,9.755 C0.071,9.808 0.001,9.921 -0.001,10.045 C-0.002,10.170 0.066,10.284 0.175,10.339 L5.941,13.255 C6.046,13.308 6.172,13.296 6.267,13.223 L11.873,8.906 L7.472,13.570 C7.409,13.637 7.377,13.728 7.384,13.821 L7.822,19.701 C7.832,19.831 7.917,19.942 8.037,19.984 C8.069,19.994 8.102,19.999 8.135,19.999 C8.225,19.999 8.312,19.960 8.373,19.887 L11.433,16.233 L15.216,18.096 C15.298,18.136 15.393,18.138 15.477,18.101 C15.560,18.064 15.624,17.990 15.651,17.901 L20.986,0.391 C21.024,0.269 20.987,0.136 20.894,0.051 Z"/>
</svg>