<svg 
 xmlns="http://www.w3.org/2000/svg"
 xmlns:xlink="http://www.w3.org/1999/xlink"
 width="35px" height="35px">
<path fill-rule="evenodd"  
 d="M34.325,4.938 C34.233,5.400 34.053,5.834 33.790,6.228 L33.596,6.519 L33.882,7.091 L33.643,7.330 L33.072,7.044 L32.780,7.238 C32.386,7.501 31.952,7.681 31.490,7.773 L31.146,7.841 L30.944,8.448 L30.608,8.448 L30.405,7.841 L30.062,7.773 C29.599,7.680 29.165,7.501 28.771,7.238 L28.479,7.044 L27.908,7.330 L27.670,7.091 L27.956,6.519 L27.761,6.228 C27.499,5.834 27.319,5.400 27.226,4.938 L27.157,4.594 L26.552,4.393 L26.552,4.055 L27.157,3.853 L27.226,3.510 C27.319,3.047 27.498,2.613 27.761,2.219 L27.956,1.928 L27.670,1.356 L27.908,1.117 L28.479,1.404 L28.771,1.210 C29.166,0.946 29.599,0.767 30.062,0.675 L30.405,0.606 L30.608,-0.000 L30.944,-0.000 L31.146,0.607 L31.490,0.675 C31.952,0.768 32.386,0.947 32.780,1.210 L33.072,1.404 L33.643,1.118 L33.882,1.356 L33.596,1.929 L33.790,2.220 C34.053,2.614 34.233,3.048 34.325,3.510 L34.394,3.854 L35.000,4.055 L35.000,4.392 L34.394,4.594 L34.325,4.938 ZM30.776,1.810 C29.445,1.810 28.362,2.892 28.362,4.224 C28.362,5.555 29.445,6.638 30.776,6.638 C32.107,6.638 33.190,5.555 33.190,4.224 C33.190,2.892 32.107,1.810 30.776,1.810 ZM30.776,5.431 C30.109,5.431 29.569,4.891 29.569,4.224 C29.569,3.557 30.109,3.017 30.776,3.017 C31.442,3.017 31.983,3.557 31.983,4.224 C31.983,4.891 31.442,5.431 30.776,5.431 ZM25.345,3.185 L25.345,3.220 C22.949,1.901 20.260,1.206 17.500,1.206 C15.213,1.206 12.938,1.692 10.862,2.616 L10.862,1.308 C12.968,0.443 15.198,-0.000 17.500,-0.000 C20.613,-0.000 23.642,0.831 26.310,2.389 C26.238,2.563 26.176,2.742 26.126,2.925 L25.345,3.185 ZM10.862,3.956 C12.913,2.950 15.198,2.414 17.500,2.414 C20.282,2.414 22.985,3.180 25.345,4.621 L25.345,5.263 L26.126,5.522 C26.230,5.896 26.379,6.253 26.570,6.592 L26.202,7.329 L27.670,8.799 L28.407,8.430 C28.746,8.621 29.104,8.770 29.477,8.873 L29.737,9.655 L30.379,9.655 C31.818,12.015 32.586,14.717 32.586,17.500 C32.586,19.398 32.235,21.243 31.551,22.991 C31.271,22.947 30.986,22.924 30.694,22.931 C28.170,22.973 26.042,25.059 25.952,27.581 C25.925,28.319 26.075,29.038 26.363,29.693 C23.776,31.580 20.727,32.586 17.500,32.586 C14.810,32.586 12.177,31.867 9.871,30.512 C9.433,29.733 8.664,29.168 7.754,29.011 C4.360,26.135 2.414,21.951 2.414,17.500 C2.414,14.765 3.144,12.125 4.528,9.801 L4.827,10.401 L6.407,7.241 L9.052,7.241 C10.050,7.241 10.862,6.429 10.862,5.431 L10.862,3.956 ZM10.258,8.448 L10.258,27.758 C10.258,28.756 11.071,29.569 12.069,29.569 L22.931,29.569 C23.929,29.569 24.741,28.756 24.741,27.758 L24.741,8.448 C24.741,7.450 23.929,6.638 22.931,6.638 L12.069,6.638 C11.071,6.638 10.258,7.450 10.258,8.448 ZM22.931,7.844 C23.263,7.844 23.534,8.115 23.534,8.448 L23.534,10.258 L11.465,10.258 L11.465,8.448 C11.465,8.115 11.736,7.844 12.069,7.844 L22.931,7.844 ZM23.534,23.534 L11.465,23.534 L11.465,11.465 L23.534,11.465 L23.534,23.534 ZM15.086,13.958 L15.086,21.041 L20.398,17.500 L15.086,13.958 ZM16.293,18.786 L16.293,16.213 L18.222,17.500 L16.293,18.786 ZM23.534,27.758 C23.534,28.091 23.263,28.362 22.931,28.362 L12.069,28.362 C11.736,28.362 11.465,28.091 11.465,27.758 L11.465,24.741 L23.534,24.741 L23.534,27.758 ZM19.914,25.948 L15.086,25.948 L15.086,27.155 L19.914,27.155 L19.914,25.948 ZM9.052,6.034 L5.661,6.034 L4.827,7.702 L3.994,6.034 L0.603,6.034 C0.271,6.034 -0.000,5.764 -0.000,5.431 L-0.000,0.603 C-0.000,0.270 0.271,-0.000 0.603,-0.000 L9.052,-0.000 C9.384,-0.000 9.655,0.270 9.655,0.603 L9.655,5.431 C9.655,5.764 9.384,6.034 9.052,6.034 ZM1.207,4.827 L6.034,4.827 L6.034,3.620 L1.207,3.620 L1.207,4.827 ZM8.448,1.206 L1.207,1.206 L1.207,2.414 L8.448,2.414 L8.448,1.206 ZM8.448,3.620 L7.241,3.620 L7.241,4.827 L8.448,4.827 L8.448,3.620 ZM3.899,8.544 C2.142,11.206 1.207,14.291 1.207,17.500 C1.207,21.933 2.997,26.121 6.151,29.182 C5.896,29.284 5.652,29.412 5.431,29.580 C5.115,29.340 4.756,29.175 4.377,29.074 C1.555,25.876 -0.000,21.771 -0.000,17.500 C-0.000,13.805 1.141,10.294 3.283,7.312 L3.899,8.544 ZM1.207,32.586 L1.810,32.586 L1.810,31.982 C1.810,30.984 2.623,30.172 3.621,30.172 C4.142,30.172 4.624,30.395 4.976,30.798 L5.431,31.318 L5.885,30.798 C6.238,30.395 6.720,30.172 7.241,30.172 C8.239,30.172 9.052,30.984 9.052,31.982 L9.052,32.586 L9.655,32.586 C10.321,32.586 10.862,33.127 10.862,33.793 C10.862,34.458 10.321,35.000 9.655,35.000 L1.207,35.000 C0.541,35.000 -0.000,34.458 -0.000,33.793 C-0.000,33.127 0.541,32.586 1.207,32.586 ZM17.500,33.793 C20.948,33.793 24.208,32.729 26.984,30.733 C27.234,31.051 27.524,31.340 27.853,31.591 C24.864,33.787 21.227,35.000 17.500,35.000 C15.629,35.000 13.795,34.696 12.036,34.118 C12.051,34.010 12.069,33.904 12.069,33.793 C12.069,33.426 11.980,33.082 11.832,32.770 C13.637,33.439 15.554,33.793 17.500,33.793 ZM30.714,24.138 C30.735,24.138 30.755,24.138 30.776,24.138 C31.732,24.138 32.632,24.505 33.315,25.177 C34.012,25.863 34.396,26.780 34.396,27.758 C34.396,28.906 33.841,29.998 32.910,30.678 C32.329,31.102 31.983,31.811 31.983,32.579 L31.983,32.586 L31.379,32.586 L31.379,29.569 L30.172,29.569 L30.172,32.586 L29.569,32.586 L29.569,32.576 C29.569,31.816 29.217,31.102 28.627,30.668 C27.664,29.957 27.115,28.819 27.157,27.624 C27.226,25.734 28.821,24.170 30.714,24.138 ZM30.172,28.362 L31.379,28.362 L31.379,27.155 L30.172,27.155 L30.172,28.362 ZM30.776,35.000 C30.110,35.000 29.569,34.458 29.569,33.793 L31.983,33.793 C31.983,34.458 31.441,35.000 30.776,35.000 ZM31.814,9.655 L32.074,8.873 C32.257,8.823 32.436,8.760 32.611,8.689 C34.169,11.357 35.000,14.386 35.000,17.500 C35.000,19.745 34.581,21.914 33.762,23.965 C33.438,23.708 33.085,23.497 32.713,23.333 C33.427,21.473 33.793,19.513 33.793,17.500 C33.793,14.739 33.100,12.051 31.781,9.655 L31.814,9.655 Z"/>
</svg>