<svg 
 xmlns="http://www.w3.org/2000/svg"
 xmlns:xlink="http://www.w3.org/1999/xlink"
 width="35px" height="35px">
<path fill-rule="evenodd"  fill="#fff"
 d="M31.063,14.951 C30.400,14.676 29.882,14.137 29.634,13.463 C30.072,12.375 30.353,11.230 30.468,10.063 L33.088,8.428 L32.160,10.669 C32.028,10.988 32.180,11.354 32.499,11.486 C32.818,11.618 33.183,11.467 33.315,11.148 L34.241,8.907 L34.937,11.916 C34.194,12.823 33.584,13.831 33.125,14.909 C32.473,15.210 31.726,15.225 31.063,14.951 ZM32.116,16.431 C32.242,16.430 32.369,16.422 32.494,16.408 L30.500,21.222 C29.903,19.905 28.979,18.763 27.816,17.904 L29.028,14.973 C29.441,15.479 29.978,15.870 30.586,16.108 C31.069,16.316 31.589,16.426 32.116,16.431 ZM29.684,26.793 C29.619,27.005 29.671,27.237 29.821,27.401 C29.972,27.565 30.198,27.636 30.415,27.588 C30.689,27.528 30.969,27.497 31.250,27.497 C33.321,27.497 35.000,29.177 35.000,31.248 C35.000,33.320 33.321,35.000 31.250,35.000 L3.750,35.000 C1.679,35.000 -0.000,33.320 -0.000,31.248 C-0.000,29.177 1.679,27.497 3.750,27.497 C4.112,27.496 4.472,27.548 4.819,27.652 C5.007,27.709 5.210,27.674 5.368,27.559 C5.526,27.444 5.621,27.261 5.625,27.065 C5.669,24.836 6.957,22.820 8.961,21.844 C10.964,20.868 13.345,21.096 15.127,22.434 C15.284,22.551 15.488,22.588 15.676,22.532 C15.864,22.477 16.016,22.336 16.085,22.153 C17.308,18.900 20.681,16.988 24.098,17.609 C27.516,18.231 30.000,21.209 30.000,24.684 C30.001,25.399 29.895,26.110 29.684,26.793 ZM10.596,23.547 C10.485,23.219 10.130,23.042 9.802,23.152 C9.708,23.183 7.500,23.947 7.500,26.246 C7.500,26.592 7.780,26.872 8.125,26.872 C8.470,26.872 8.750,26.592 8.750,26.246 C8.801,25.374 9.375,24.620 10.201,24.338 L10.201,24.340 C10.529,24.230 10.706,23.875 10.596,23.547 ZM21.875,18.744 C20.098,18.768 18.563,19.991 18.144,21.718 C18.060,22.053 18.263,22.392 18.597,22.476 C18.647,22.489 18.698,22.495 18.750,22.495 C19.037,22.495 19.286,22.300 19.356,22.022 C19.644,20.855 20.677,20.025 21.878,19.994 C22.223,19.993 22.502,19.713 22.501,19.367 C22.501,19.023 22.220,18.743 21.875,18.744 ZM24.944,29.319 C24.435,28.210 23.327,27.498 22.106,27.497 C21.641,27.498 21.183,27.605 20.765,27.810 C19.818,26.486 18.124,25.927 16.575,26.426 C15.026,26.926 13.977,28.370 13.981,29.998 C13.981,30.512 14.085,31.021 14.287,31.494 C14.386,31.724 14.612,31.874 14.862,31.874 C14.947,31.874 15.030,31.857 15.107,31.823 C15.260,31.759 15.380,31.636 15.442,31.482 C15.504,31.328 15.502,31.156 15.437,31.003 C15.301,30.686 15.231,30.344 15.231,29.998 C15.231,28.617 16.350,27.497 17.731,27.497 C18.700,27.491 19.583,28.053 19.991,28.932 C20.004,28.953 20.019,28.972 20.034,28.992 C20.044,29.013 20.055,29.034 20.067,29.054 C20.079,29.067 20.095,29.074 20.107,29.087 C20.137,29.117 20.169,29.145 20.204,29.168 C20.235,29.192 20.269,29.213 20.304,29.231 C20.340,29.246 20.378,29.257 20.417,29.266 C20.535,29.297 20.660,29.289 20.773,29.244 C20.790,29.241 20.806,29.237 20.822,29.232 C20.843,29.219 20.862,29.204 20.880,29.189 C20.903,29.179 20.925,29.168 20.946,29.155 C21.275,28.890 21.684,28.746 22.106,28.747 C22.836,28.748 23.499,29.173 23.806,29.836 C23.874,29.987 24.000,30.105 24.155,30.163 C24.311,30.223 24.483,30.217 24.634,30.148 C24.785,30.079 24.902,29.953 24.961,29.798 C25.018,29.643 25.012,29.470 24.944,29.319 ZM20.469,12.350 C20.390,12.339 20.313,12.331 20.235,12.320 C20.299,11.729 20.372,11.132 20.467,10.506 L23.607,10.699 C23.625,11.283 23.619,11.886 23.600,12.502 C22.554,12.577 21.503,12.526 20.469,12.350 ZM22.812,16.243 C21.869,16.245 20.932,16.406 20.042,16.720 C20.014,15.668 20.040,14.614 20.121,13.564 L20.302,13.588 C21.108,13.712 21.921,13.782 22.735,13.795 C22.994,13.795 23.267,13.774 23.540,13.753 C23.483,14.557 23.390,15.398 23.272,16.266 C23.119,16.258 22.967,16.243 22.812,16.243 ZM20.215,9.240 C19.696,8.754 19.398,8.078 19.389,7.367 C19.380,6.656 19.662,5.972 20.169,5.474 C21.825,3.641 22.688,2.232 22.888,0.910 C24.081,2.137 24.868,3.702 25.144,5.391 C25.275,6.863 24.821,8.327 23.879,9.464 C22.643,9.390 21.422,9.314 20.215,9.240 ZM24.257,4.624 C24.204,4.403 24.036,4.229 23.817,4.168 C23.599,4.107 23.364,4.170 23.205,4.331 C23.046,4.493 22.986,4.728 23.050,4.946 C23.200,5.863 22.976,6.802 22.428,7.553 C22.286,7.742 22.263,7.996 22.369,8.207 C22.475,8.419 22.691,8.553 22.928,8.553 C23.124,8.553 23.308,8.461 23.426,8.305 C24.206,7.248 24.508,5.913 24.257,4.624 ZM13.500,13.256 C13.421,12.921 13.085,12.712 12.750,12.790 C12.415,12.869 12.207,13.205 12.285,13.541 L13.892,20.396 C13.451,20.239 12.994,20.125 12.530,20.057 L9.787,8.348 C10.171,8.523 10.588,8.614 11.011,8.614 C11.050,8.614 11.092,8.607 11.132,8.607 L11.574,10.494 C11.621,10.715 11.784,10.893 12.000,10.960 C12.216,11.027 12.451,10.971 12.615,10.816 C12.779,10.660 12.846,10.428 12.791,10.209 L12.348,8.321 C12.771,8.133 13.144,7.848 13.437,7.490 L16.223,19.420 C15.861,19.871 15.547,20.359 15.285,20.875 L13.500,13.256 ZM11.469,7.309 C10.670,7.465 9.854,7.139 9.382,6.476 L9.462,4.274 C9.679,4.315 9.900,4.336 10.121,4.336 C10.335,4.337 10.548,4.314 10.756,4.266 C11.178,4.155 11.572,3.959 11.915,3.689 L12.969,5.633 C12.842,6.438 12.255,7.094 11.469,7.309 ZM9.507,3.003 L9.609,0.186 C9.613,0.099 9.673,0.025 9.757,0.005 C9.843,-0.015 9.930,0.024 9.972,0.101 L11.314,2.580 C11.072,2.798 10.784,2.959 10.471,3.048 C10.150,3.107 9.821,3.092 9.507,3.003 ZM4.562,25.571 L0.032,14.645 L5.234,12.492 L5.713,13.647 L3.400,14.605 L3.399,14.605 C3.123,14.718 2.966,15.011 3.025,15.304 C3.083,15.597 3.340,15.807 3.638,15.807 C3.720,15.807 3.801,15.791 3.877,15.760 L6.190,14.801 L6.668,15.957 L5.511,16.436 C5.235,16.550 5.079,16.844 5.137,17.137 C5.196,17.429 5.453,17.640 5.751,17.639 C5.833,17.639 5.914,17.623 5.990,17.592 L7.147,17.112 L7.625,18.267 L5.312,19.226 C5.036,19.340 4.880,19.633 4.939,19.926 C4.998,20.219 5.256,20.430 5.554,20.428 C5.636,20.428 5.717,20.412 5.793,20.381 L8.105,19.423 L8.611,20.644 C6.574,21.573 5.080,23.392 4.562,25.571 Z"/>
</svg>