<svg 
 xmlns="http://www.w3.org/2000/svg"
 xmlns:xlink="http://www.w3.org/1999/xlink"
 width="35px" height="35px">
<path fill-rule="evenodd"  fill="#fff"
 d="M33.125,27.499 L1.875,27.499 C0.839,27.499 -0.000,26.660 -0.000,25.625 L-0.000,23.750 L35.000,23.750 L35.000,25.625 C35.000,26.660 34.160,27.499 33.125,27.499 ZM17.500,25.000 C17.155,25.000 16.875,25.279 16.875,25.625 C16.875,25.970 17.155,26.250 17.500,26.250 C17.845,26.250 18.125,25.970 18.125,25.625 C18.125,25.279 17.845,25.000 17.500,25.000 ZM10.808,15.808 L9.116,17.500 L2.528,17.500 C2.849,13.958 5.819,11.246 9.375,11.246 C12.931,11.246 15.900,13.958 16.222,17.500 L10.884,17.500 L11.692,16.692 C11.929,16.446 11.925,16.056 11.684,15.816 C11.443,15.574 11.053,15.571 10.808,15.808 ZM5.000,15.624 C4.655,15.624 4.375,15.904 4.375,16.249 C4.375,16.595 4.655,16.875 5.000,16.875 C5.345,16.875 5.625,16.595 5.625,16.249 C5.625,15.904 5.345,15.624 5.000,15.624 ZM6.875,13.750 C6.530,13.750 6.250,14.029 6.250,14.374 C6.250,14.720 6.530,15.000 6.875,15.000 C7.220,15.000 7.500,14.720 7.500,14.374 C7.500,14.029 7.220,13.750 6.875,13.750 ZM9.375,12.499 C9.030,12.499 8.750,12.779 8.750,13.125 C8.750,13.470 9.030,13.750 9.375,13.750 C9.720,13.750 10.000,13.470 10.000,13.125 C10.000,12.779 9.720,12.499 9.375,12.499 ZM13.750,16.875 C14.095,16.875 14.375,16.595 14.375,16.249 C14.375,15.904 14.095,15.624 13.750,15.624 C13.405,15.624 13.125,15.904 13.125,16.249 C13.125,16.595 13.405,16.875 13.750,16.875 ZM11.875,15.000 C12.220,15.000 12.500,14.720 12.500,14.374 C12.500,14.029 12.220,13.750 11.875,13.750 C11.530,13.750 11.250,14.029 11.250,14.374 C11.250,14.720 11.530,15.000 11.875,15.000 ZM-0.000,18.749 L16.875,18.749 C17.220,18.749 17.500,18.469 17.500,18.125 C17.498,13.763 14.050,10.181 9.691,10.014 C5.332,9.845 1.619,13.151 1.282,17.500 L-0.000,17.500 L-0.000,5.000 L22.500,5.000 C22.845,5.000 23.125,4.720 23.125,4.374 C23.125,4.029 22.845,3.749 22.500,3.749 L-0.000,3.749 L-0.000,1.875 C-0.000,0.839 0.839,-0.000 1.875,-0.000 L33.125,-0.000 C34.160,-0.000 35.000,0.839 35.000,1.875 L35.000,3.749 L28.750,3.749 C28.405,3.749 28.125,4.029 28.125,4.374 C28.125,4.720 28.405,5.000 28.750,5.000 L35.000,5.000 L35.000,17.500 L33.750,17.500 C33.405,17.500 33.125,17.780 33.125,18.125 C33.125,18.469 33.405,18.749 33.750,18.749 L35.000,18.749 L35.000,22.500 L-0.000,22.500 L-0.000,18.749 ZM5.350,8.613 C5.165,8.487 4.927,8.471 4.726,8.569 C3.752,9.043 2.856,9.664 2.070,10.409 C1.819,10.646 1.808,11.041 2.046,11.292 C2.283,11.543 2.679,11.554 2.929,11.317 C3.624,10.659 4.414,10.111 5.274,9.691 L5.274,9.694 C5.475,9.595 5.608,9.398 5.624,9.175 C5.640,8.952 5.535,8.738 5.350,8.613 ZM13.059,8.338 C12.984,8.190 12.853,8.077 12.695,8.025 C11.411,7.608 10.060,7.435 8.713,7.516 C8.368,7.536 8.105,7.833 8.125,8.177 C8.145,8.523 8.441,8.786 8.787,8.766 C9.977,8.694 11.170,8.846 12.304,9.215 C12.462,9.267 12.634,9.254 12.781,9.179 C12.930,9.105 13.042,8.974 13.094,8.816 L13.094,8.818 C13.146,8.660 13.134,8.487 13.059,8.338 ZM1.875,1.250 C1.530,1.250 1.250,1.529 1.250,1.875 C1.250,2.220 1.530,2.499 1.875,2.499 C2.220,2.499 2.500,2.220 2.500,1.875 C2.500,1.529 2.220,1.250 1.875,1.250 ZM4.375,1.250 C4.030,1.250 3.750,1.529 3.750,1.875 C3.750,2.220 4.030,2.499 4.375,2.499 C4.720,2.499 5.000,2.220 5.000,1.875 C5.000,1.529 4.720,1.250 4.375,1.250 ZM6.875,1.250 C6.530,1.250 6.250,1.529 6.250,1.875 C6.250,2.220 6.530,2.499 6.875,2.499 C7.220,2.499 7.500,2.220 7.500,1.875 C7.500,1.529 7.220,1.250 6.875,1.250 ZM18.737,15.000 L19.671,15.016 C19.778,15.359 19.920,15.690 20.093,16.005 L19.429,16.670 C18.946,17.154 18.946,17.937 19.429,18.420 L20.330,19.322 C20.814,19.803 21.597,19.803 22.080,19.322 L22.753,18.672 C23.071,18.839 23.405,18.974 23.750,19.075 L23.750,20.012 C23.751,20.695 24.304,21.249 24.987,21.249 L26.263,21.249 C26.945,21.249 27.499,20.695 27.500,20.012 L27.518,19.081 C27.860,18.973 28.191,18.831 28.506,18.659 L29.170,19.322 C29.654,19.805 30.437,19.805 30.921,19.322 L31.822,18.422 C32.305,17.938 32.305,17.155 31.822,16.672 L31.172,16.000 C31.339,15.680 31.474,15.346 31.575,15.000 L32.512,15.000 C33.195,14.998 33.749,14.445 33.750,13.762 L33.750,12.487 C33.749,11.804 33.195,11.251 32.512,11.250 L31.582,11.235 C31.475,10.892 31.333,10.561 31.161,10.245 L31.825,9.581 C32.308,9.098 32.308,8.314 31.825,7.831 L30.922,6.928 C30.439,6.446 29.656,6.446 29.172,6.928 L28.500,7.579 C28.181,7.411 27.846,7.276 27.500,7.175 L27.500,6.237 C27.499,5.554 26.945,5.000 26.263,5.000 L24.987,5.000 C24.304,5.000 23.751,5.554 23.750,6.237 L23.732,7.170 C23.389,7.278 23.058,7.419 22.743,7.592 L22.078,6.927 C21.594,6.445 20.812,6.445 20.328,6.927 L19.427,7.828 C18.944,8.311 18.944,9.095 19.427,9.578 L20.077,10.249 C19.911,10.569 19.776,10.904 19.675,11.250 L18.737,11.250 C18.054,11.251 17.501,11.804 17.500,12.487 L17.500,13.762 C17.501,14.445 18.054,14.998 18.737,15.000 ZM20.862,11.613 C20.948,11.342 21.057,11.080 21.187,10.828 C21.446,10.345 21.360,9.751 20.976,9.361 L20.312,8.714 L21.197,7.812 L21.861,8.478 C22.251,8.862 22.846,8.948 23.328,8.689 C23.580,8.559 23.843,8.450 24.113,8.363 C24.637,8.204 24.996,7.723 25.000,7.175 L24.987,6.250 L26.250,6.238 L26.250,7.175 C26.254,7.722 26.613,8.203 27.136,8.362 C27.406,8.449 27.669,8.557 27.921,8.688 C28.403,8.947 28.998,8.861 29.388,8.476 L30.036,7.812 L30.937,8.696 L30.271,9.361 C29.887,9.751 29.802,10.346 30.060,10.828 C30.191,11.080 30.300,11.342 30.386,11.613 C30.545,12.136 31.026,12.496 31.574,12.499 L32.500,12.487 L32.500,13.750 L31.574,13.750 C31.027,13.754 30.546,14.113 30.388,14.637 C30.301,14.907 30.192,15.169 30.062,15.421 C29.804,15.904 29.889,16.498 30.273,16.888 L30.937,17.535 L30.053,18.437 L29.388,17.771 C28.998,17.387 28.404,17.302 27.921,17.560 C27.669,17.691 27.407,17.800 27.137,17.886 C26.613,18.045 26.254,18.526 26.250,19.073 L26.263,20.000 L25.000,20.011 L25.000,19.073 C24.995,18.527 24.637,18.047 24.114,17.888 C23.843,17.802 23.581,17.693 23.330,17.562 C23.145,17.465 22.940,17.415 22.732,17.415 C22.406,17.413 22.092,17.542 21.861,17.773 L21.214,18.437 L20.312,17.553 L20.978,16.888 C21.362,16.498 21.448,15.904 21.189,15.421 C21.059,15.169 20.950,14.907 20.864,14.637 C20.705,14.113 20.223,13.754 19.676,13.750 L18.750,13.762 L18.739,12.499 L19.676,12.499 C20.223,12.495 20.703,12.136 20.862,11.613 ZM25.625,16.875 C27.696,16.875 29.375,15.196 29.375,13.125 C29.373,11.054 27.695,9.377 25.625,9.375 C23.554,9.375 21.875,11.053 21.875,13.125 C21.875,15.196 23.554,16.875 25.625,16.875 ZM25.625,10.625 C27.006,10.625 28.125,11.744 28.125,13.125 C28.125,14.506 27.006,15.624 25.625,15.624 C24.244,15.624 23.125,14.506 23.125,13.125 C23.125,11.744 24.244,10.625 25.625,10.625 ZM25.625,13.750 C25.970,13.750 26.250,13.470 26.250,13.125 C26.250,12.779 25.970,12.499 25.625,12.499 C25.280,12.499 25.000,12.779 25.000,13.125 C25.000,13.470 25.280,13.750 25.625,13.750 ZM20.034,28.749 C20.196,30.158 20.814,31.475 21.794,32.500 L13.206,32.500 C14.186,31.475 14.804,30.158 14.965,28.749 L20.034,28.749 ZM10.625,33.750 L24.375,33.750 C24.720,33.750 25.000,34.030 25.000,34.375 C25.000,34.720 24.720,35.000 24.375,35.000 L10.625,35.000 C10.280,35.000 10.000,34.720 10.000,34.375 C10.000,34.030 10.280,33.750 10.625,33.750 Z"/>
</svg>

