<svg 
 xmlns="http://www.w3.org/2000/svg"
 xmlns:xlink="http://www.w3.org/1999/xlink"
 width="57px" height="50px">
<path fill-rule="evenodd"  fill="rgb(255, 255, 255)"
 d="M36.855,43.355 L36.855,46.680 L43.541,46.680 L43.541,49.999 L13.459,49.999 L13.459,46.680 L20.145,46.680 L20.145,43.355 L-0.000,43.355 L-0.000,-0.001 L57.000,-0.001 L57.000,43.355 L36.855,43.355 ZM23.485,46.680 L33.515,46.680 L33.515,43.355 L23.485,43.355 L23.485,46.680 ZM53.660,3.317 L3.340,3.317 L3.340,33.393 L53.660,33.393 L53.660,3.317 ZM53.660,36.712 L3.340,36.712 L3.340,40.037 L53.660,40.037 L53.660,36.712 ZM23.417,12.823 L17.850,18.356 L23.417,23.887 L21.055,26.234 L13.127,18.356 L21.055,10.476 L23.417,12.823 ZM30.170,26.721 L26.830,26.721 L26.830,9.989 L30.170,9.989 L30.170,26.721 ZM35.945,10.476 L43.873,18.356 L35.945,26.234 L33.583,23.887 L39.150,18.356 L33.583,12.823 L35.945,10.476 Z"/>
</svg>