<svg 
 xmlns="http://www.w3.org/2000/svg"
 xmlns:xlink="http://www.w3.org/1999/xlink"
 width="50px" height="50px">
<path fill-rule="evenodd"  fill="rgb(255, 255, 255)"
 d="M50.000,16.667 L50.000,47.916 C50.000,49.066 49.067,49.999 47.917,49.999 L2.083,49.999 C0.933,49.999 0.000,49.066 0.000,47.916 L0.000,12.501 C0.000,11.350 0.933,10.418 2.083,10.418 L21.094,10.418 C21.670,10.418 22.220,10.656 22.614,11.075 L25.903,14.585 L36.130,14.585 L30.812,23.699 L28.556,21.443 C28.487,21.374 28.412,21.309 28.333,21.250 C27.413,20.560 26.107,20.746 25.417,21.667 L20.348,28.423 L15.739,25.350 C14.819,24.737 13.580,24.949 12.917,25.833 L6.667,34.166 L10.000,36.666 L15.068,29.910 L19.678,32.982 C20.598,33.597 21.836,33.384 22.500,32.499 L27.309,26.089 L29.777,28.556 C29.903,28.683 30.046,28.792 30.200,28.883 C31.194,29.463 32.470,29.127 33.049,28.133 L40.954,14.583 L47.917,14.583 C49.067,14.583 50.000,15.516 50.000,16.667 ZM45.833,35.416 L31.250,35.416 L31.250,39.583 L45.833,39.583 L45.833,35.416 ZM45.833,41.666 L25.000,41.666 L25.000,45.832 L45.833,45.832 L45.833,41.666 ZM41.543,5.304 L38.005,6.189 L36.995,2.147 L45.328,0.064 C46.444,-0.215 47.575,0.464 47.854,1.579 L49.938,9.912 L45.896,10.922 L45.054,7.555 L40.954,14.583 L36.130,14.583 L41.543,5.304 Z"/>
</svg>