<svg 
 xmlns="http://www.w3.org/2000/svg"
 xmlns:xlink="http://www.w3.org/1999/xlink"
 width="50px" height="50px">
<path fill-rule="evenodd"  fill="rgb(255, 255, 255)"
 d="M25.000,49.999 C11.214,49.999 -0.000,38.784 -0.000,24.999 C-0.000,11.214 11.214,-0.002 25.000,-0.002 C38.785,-0.002 50.000,11.214 50.000,24.999 C50.000,38.784 38.785,49.999 25.000,49.999 ZM18.289,24.998 C18.289,28.699 21.300,31.709 25.000,31.709 C28.700,31.709 31.710,28.699 31.710,24.998 C31.710,21.297 28.700,18.287 25.000,18.287 C21.299,18.287 18.289,21.297 18.289,24.998 ZM25.000,7.018 C24.154,7.018 23.470,7.704 23.470,8.549 C23.470,9.394 24.154,10.079 25.000,10.079 C33.226,10.079 39.919,16.774 39.919,24.999 C39.919,25.844 40.604,26.529 41.450,26.529 C42.294,26.529 42.980,25.844 42.980,24.999 C42.980,15.085 34.914,7.018 25.000,7.018 ZM27.884,24.999 C27.884,26.590 26.591,27.884 25.000,27.884 C23.409,27.884 22.115,26.589 22.115,24.999 C22.115,23.408 23.410,22.115 25.000,22.115 C26.590,22.115 27.884,23.408 27.884,24.999 Z"/>
</svg>