<svg 
 xmlns="http://www.w3.org/2000/svg"
 xmlns:xlink="http://www.w3.org/1999/xlink"
 width="44px" height="50px">
<path fill-rule="evenodd"  fill="rgb(255, 255, 255)"
 d="M42.539,14.648 L39.617,14.648 C38.809,14.648 38.156,13.992 38.156,13.182 C38.156,12.373 38.809,11.718 39.617,11.718 L42.539,11.718 C43.346,11.718 44.000,12.373 44.000,13.182 C44.000,13.992 43.346,14.648 42.539,14.648 ZM37.728,8.358 C37.157,8.931 36.232,8.931 35.662,8.358 C35.091,7.787 35.091,6.860 35.662,6.287 L38.584,3.357 C39.154,2.785 40.079,2.785 40.650,3.357 C41.220,3.929 41.220,4.857 40.650,5.428 L37.728,8.358 ZM30.850,5.858 C30.043,5.858 29.389,5.203 29.389,4.393 L29.389,1.463 C29.389,0.654 30.043,-0.001 30.850,-0.001 C31.658,-0.001 32.311,0.654 32.311,1.463 L32.311,4.393 C32.311,5.203 31.658,5.858 30.850,5.858 ZM42.559,24.901 C41.419,26.044 39.566,26.044 38.427,24.901 L18.973,5.399 C17.835,4.256 17.835,2.398 18.973,1.253 C20.105,0.121 21.961,0.108 23.108,1.255 L42.559,20.759 C43.702,21.904 43.702,23.756 42.559,24.901 ZM35.002,26.495 C29.844,27.530 25.011,30.111 21.039,33.508 L10.456,22.898 C13.846,18.916 16.352,14.003 17.384,8.831 L17.530,8.095 L35.738,26.349 L35.002,26.495 ZM11.615,42.705 C9.899,44.425 7.125,44.418 5.416,42.705 L1.284,38.562 C-0.432,36.841 -0.425,34.060 1.284,32.346 L8.516,25.096 L18.847,35.453 L11.615,42.705 ZM9.549,32.347 L7.483,34.418 C6.913,34.991 6.913,35.919 7.483,36.491 C8.054,37.063 8.979,37.063 9.549,36.491 L11.615,34.418 C12.186,33.846 12.186,32.920 11.615,32.347 C11.045,31.776 10.120,31.776 9.549,32.347 ZM22.849,41.445 L24.869,39.420 C25.443,38.842 25.439,37.917 24.869,37.350 L23.106,35.580 C23.864,34.943 24.643,34.346 25.459,33.796 L26.935,35.277 C28.646,36.989 28.651,39.771 26.935,41.491 L24.948,43.484 L26.507,45.000 C27.647,46.142 27.647,48.001 26.507,49.144 C25.365,50.288 23.508,50.282 22.377,49.145 L15.747,42.705 L19.880,38.562 L22.849,41.445 Z"/>
</svg>