<svg 
 xmlns="http://www.w3.org/2000/svg"
 xmlns:xlink="http://www.w3.org/1999/xlink"
 width="50px" height="50px">
<path fill-rule="evenodd"  fill="rgb(255, 255, 255)"
 d="M45.508,35.253 C43.601,35.253 41.990,34.024 41.383,32.322 L33.184,32.322 C35.842,34.449 37.635,37.555 38.035,41.111 L41.113,41.111 L41.113,49.999 L32.324,49.999 L32.324,41.111 L35.106,41.111 C34.578,37.468 32.148,34.431 28.850,33.078 L31.047,29.393 L41.383,29.393 C41.990,27.692 43.600,26.464 45.508,26.464 C47.931,26.464 50.000,28.435 50.000,30.858 C50.000,33.281 47.931,35.253 45.508,35.253 ZM26.465,17.675 L23.535,17.675 L23.535,31.359 L14.145,15.605 L15.556,14.900 C17.978,13.689 19.722,11.409 20.349,8.788 L29.650,8.788 C30.278,11.409 32.022,13.689 34.444,14.900 L35.855,15.605 L26.465,31.359 L26.465,17.675 ZM20.605,-0.002 L29.394,-0.002 L29.394,5.858 L20.605,5.858 L20.605,-0.002 ZM21.149,33.078 C17.852,34.431 15.422,37.468 14.894,41.111 L17.676,41.111 L17.676,49.999 L8.887,49.999 L8.887,41.111 L11.964,41.111 C12.364,37.555 14.158,34.449 16.816,32.322 L8.617,32.322 C8.010,34.024 6.399,35.253 4.492,35.253 C2.069,35.253 -0.000,33.281 -0.000,30.858 C-0.000,28.435 2.069,26.464 4.492,26.464 C6.399,26.464 8.010,27.692 8.617,29.393 L18.953,29.393 L21.149,33.078 Z"/>
</svg>