<svg 
 xmlns="http://www.w3.org/2000/svg"
 xmlns:xlink="http://www.w3.org/1999/xlink"
 width="59px" height="50px">
<path fill-rule="evenodd"  fill="rgb(255, 255, 255)"
 d="M50.815,20.091 L50.815,22.579 C46.439,20.942 41.547,21.407 37.564,23.840 C36.396,22.256 34.538,21.318 32.560,21.316 L22.210,21.293 L22.190,21.293 C19.066,21.290 16.428,23.596 16.035,26.674 L15.229,33.083 C14.934,35.410 12.946,37.158 10.585,37.170 L8.517,37.170 C5.936,37.170 3.863,35.040 3.863,32.477 L3.863,20.091 C3.858,19.876 3.762,19.671 3.598,19.529 C1.324,17.512 0.016,14.633 -0.000,11.605 C0.004,8.873 1.075,6.250 2.989,4.287 C7.067,0.107 13.786,-0.000 17.996,4.049 C18.008,4.061 18.020,4.052 18.032,4.064 C18.177,4.210 18.378,4.289 18.585,4.281 L36.151,4.281 C36.349,4.289 36.541,4.218 36.686,4.085 C38.753,2.053 41.577,0.963 44.483,1.077 C50.199,1.267 54.774,6.069 54.683,11.776 C54.634,14.822 53.362,17.572 51.062,19.512 C50.898,19.660 50.807,19.872 50.815,20.091 ZM11.000,4.310 C6.960,4.310 3.686,7.563 3.686,11.573 C3.686,15.585 6.960,18.836 11.000,18.836 C15.038,18.832 18.310,15.582 18.314,11.573 C18.314,7.563 15.039,4.310 11.000,4.310 ZM31.654,16.252 L23.025,16.252 C22.604,16.252 22.263,16.591 22.263,17.008 C22.263,17.426 22.604,17.764 23.025,17.764 L31.654,17.764 C32.074,17.764 32.415,17.426 32.415,17.008 C32.415,16.591 32.074,16.252 31.654,16.252 ZM41.652,18.967 C42.181,19.495 42.903,19.789 43.653,19.780 L43.673,19.780 C44.416,19.790 45.133,19.507 45.665,18.992 C46.202,18.478 46.507,17.769 46.510,17.029 C46.517,16.288 46.228,15.575 45.708,15.044 C44.617,13.933 42.825,13.909 41.705,14.992 C40.585,16.074 40.562,17.854 41.652,18.967 ZM36.606,9.995 L36.606,9.995 C36.074,10.524 35.775,11.240 35.775,11.988 C35.775,12.735 36.074,13.452 36.606,13.981 C37.715,15.081 39.512,15.081 40.620,13.981 C41.728,12.880 41.728,11.096 40.620,9.995 C39.511,8.894 37.714,8.894 36.606,9.995 ZM45.696,4.954 C44.587,3.854 42.790,3.855 41.682,4.954 L41.682,4.954 C41.148,5.482 40.849,6.200 40.851,6.947 C40.851,7.694 41.150,8.411 41.682,8.940 C42.790,10.041 44.588,10.041 45.696,8.940 C46.804,7.840 46.804,6.055 45.696,4.954 ZM48.801,9.187 C48.048,9.179 47.323,9.472 46.788,9.999 C46.253,10.524 45.949,11.239 45.944,11.986 C45.933,13.542 47.195,14.812 48.763,14.823 C50.330,14.833 51.609,13.580 51.620,12.024 C51.630,10.467 50.368,9.197 48.801,9.187 ZM47.846,12.923 C47.601,12.678 47.465,12.347 47.466,12.003 C47.470,11.284 48.058,10.704 48.782,10.707 L48.791,10.707 C49.139,10.706 49.474,10.845 49.718,11.092 C49.719,11.093 49.719,11.093 49.719,11.093 C50.228,11.606 50.222,12.429 49.706,12.935 C49.188,13.441 48.356,13.436 47.846,12.923 ZM43.689,8.253 C43.340,8.253 43.005,8.117 42.759,7.871 C42.512,7.626 42.373,7.293 42.373,6.947 C42.374,6.226 42.962,5.641 43.689,5.641 C44.415,5.641 45.004,6.226 45.004,6.947 C45.004,7.669 44.415,8.253 43.689,8.253 ZM38.613,13.294 C38.264,13.294 37.929,13.156 37.683,12.911 C37.436,12.666 37.297,12.334 37.297,11.988 C37.297,11.266 37.886,10.682 38.613,10.682 C39.339,10.682 39.928,11.266 39.928,11.988 C39.928,12.709 39.339,13.294 38.613,13.294 ZM43.672,15.705 C44.024,15.705 44.361,15.845 44.608,16.094 C44.851,16.339 44.987,16.667 44.987,17.011 C44.988,17.732 44.399,18.316 43.673,18.316 C42.947,18.317 42.358,17.733 42.358,17.012 C42.357,16.291 42.946,15.706 43.672,15.705 ZM8.789,16.892 C5.833,15.676 4.430,12.310 5.655,9.375 C6.881,6.440 10.269,5.047 13.225,6.264 C16.180,7.481 17.583,10.846 16.358,13.780 C15.133,16.715 11.744,18.108 8.789,16.892 ZM22.357,1.431 C23.123,0.513 24.265,-0.013 25.466,-0.003 L29.212,-0.003 C30.412,-0.013 31.554,0.513 32.321,1.431 L33.450,2.769 L21.227,2.769 L22.357,1.431 ZM45.447,23.127 C52.920,23.127 59.000,29.153 59.000,36.563 C59.000,43.972 52.920,49.998 45.447,49.998 C37.975,49.998 31.895,43.972 31.895,36.563 C31.895,29.153 37.975,23.127 45.447,23.127 ZM48.410,40.825 C48.080,41.083 48.023,41.557 48.283,41.886 C48.543,42.214 49.021,42.271 49.352,42.013 L55.617,37.117 C55.801,36.974 55.908,36.755 55.908,36.523 L55.908,36.523 C55.908,36.291 55.801,36.072 55.617,35.929 L49.352,31.034 C49.021,30.775 48.543,30.832 48.283,31.161 C48.023,31.488 48.080,31.964 48.410,32.222 L53.915,36.523 L48.410,40.825 ZM44.215,44.579 C44.630,44.642 45.019,44.358 45.082,43.945 L47.308,29.343 L47.307,29.344 C47.370,28.931 47.084,28.546 46.669,28.484 C46.253,28.421 45.865,28.704 45.802,29.117 L43.576,43.718 C43.513,44.131 43.799,44.517 44.215,44.579 ZM35.151,36.055 C34.891,36.384 34.948,36.860 35.278,37.117 L41.544,42.013 C41.874,42.271 42.353,42.214 42.613,41.886 C42.873,41.557 42.816,41.083 42.485,40.825 L36.980,36.523 L42.485,32.222 C42.816,31.964 42.873,31.488 42.613,31.161 C42.353,30.832 41.874,30.775 41.544,31.034 L35.278,35.929 C35.231,35.966 35.188,36.008 35.151,36.055 Z"/>
</svg>